<?xml version="1.0" encoding="UTF-8"?>
<svg id="Layer_1" xmlns="http://www.w3.org/2000/svg" version="1.1" viewBox="0 0 336.5 336.5">
  <!-- Generator: Adobe Illustrator 29.2.1, SVG Export Plug-In . SVG Version: 2.1.0 Build 116)  -->
  <defs>
    <style>
      .st0 {
        fill: #231f20;
      }

      .st1 {
        fill: none;
        stroke: #231f20;
        stroke-linecap: round;
        stroke-miterlimit: 10;
        stroke-width: 27px;
      }
    </style>
  </defs>
  <path class="st1" d="M13.81,170.94c0-55.12,28.54-103.57,71.64-131.38"/>
  <path class="st1" d="M13.81,170.94c0,55.12,28.54,103.57,71.64,131.38"/>
  <path class="st1" d="M322.69,165.56c0-55.12-28.54-103.57-71.64-131.38"/>
  <path class="st1" d="M322.69,165.56c0,55.12-28.54,103.57-71.64,131.38"/>
  <path class="st0" d="M170.04,47.84c-66.5,0-120.41,53.91-120.41,120.41s53.91,120.41,120.41,120.41,120.41-53.91,120.41-120.41-53.91-120.41-120.41-120.41ZM168.25,259.52c-9.74,0-17.64-7.9-17.64-17.64s7.9-17.64,17.64-17.64,17.64,7.9,17.64,17.64-7.9,17.64-17.64,17.64ZM185.89,195.47c0,9.74-7.9,17.64-17.64,17.64h0c-9.74,0-17.64-7.9-17.64-17.64v-91.15c0-9.74,7.9-17.64,17.64-17.64h0c9.74,0,17.64,7.9,17.64,17.64v91.15Z"/>
</svg>