<?xml version="1.0" encoding="UTF-8"?>
<svg id="Layer_1" xmlns="http://www.w3.org/2000/svg" version="1.1" viewBox="0 0 336.5 336.5">
  <!-- Generator: Adobe Illustrator 29.2.1, SVG Export Plug-In . SVG Version: 2.1.0 Build 116)  -->
  <defs>
    <style>
      .st0 {
        fill: #231f20;
      }
    </style>
  </defs>
  <path class="st0" d="M168.25,61c28.65,0,55.58,11.16,75.84,31.41,20.26,20.26,31.41,47.19,31.41,75.84s-11.16,55.58-31.41,75.84c-20.26,20.26-47.19,31.41-75.84,31.41s-55.58-11.16-75.84-31.41c-20.26-20.26-31.41-47.19-31.41-75.84s11.16-55.58,31.41-75.84c20.26-20.26,47.19-31.41,75.84-31.41M168.25,0C75.33,0,0,75.33,0,168.25s75.33,168.25,168.25,168.25,168.25-75.33,168.25-168.25S261.17,0,168.25,0h0Z"/>
  <g>
    <path class="st0" d="M253.02,186.35c1.24-5.84,1.9-11.9,1.9-18.1,0-19.36-6.35-37.23-17.08-51.66l-23.19,26.05c4.2,7.59,6.6,16.32,6.6,25.61,0,3.33-.32,6.58-.91,9.73l32.68,8.37Z"/>
    <path class="st0" d="M142.84,121.73c7.54-4.13,16.2-6.48,25.41-6.48,9.78,0,18.94,2.66,26.81,7.29l22.66-25.45c-14.03-9.77-31.08-15.5-49.47-15.5s-34.38,5.38-48.15,14.6l22.74,25.55Z"/>
    <path class="st0" d="M154.25,219.37c-10.27-2.81-19.29-8.62-26.06-16.44l-34.85,8.93c12.78,21.91,34.9,37.7,60.91,41.93v-34.42Z"/>
    <path class="st0" d="M208.65,203.89l.5-1.94c-6.86,8.31-16.21,14.49-26.9,17.41v34.42c25.7-4.18,47.61-19.65,60.46-41.17l-34.05-8.72Z"/>
    <path class="st0" d="M115.25,168.25c0-9.89,2.72-19.14,7.43-27.06l-23.05-25.88c-11.31,14.64-18.05,33-18.05,52.94,0,5.92.59,11.69,1.72,17.27l32.7-8.38c-.49-2.89-.76-5.86-.76-8.9Z"/>
  </g>
  <circle class="st0" cx="168.91" cy="168.25" r="30.95"/>
</svg>